<svg id="visual" viewBox="0 0 900 300" width="900" height="300" xmlns="http://www.w3.org/2000/svg" xmlns:xlink="http://www.w3.org/1999/xlink" version="1.1"><g stroke-width="1" stroke-linejoin="bevel"><path d="M491 128L510 198L617 97Z" fill="#6b6dd4" stroke="#6b6dd4"></path><path d="M510 198L573 230L617 97Z" fill="#7678ed" stroke="#7678ed"></path><path d="M719 228L663 66L617 97Z" fill="#38375f" stroke="#38375f"></path><path d="M617 97L572 0L491 128Z" fill="#1a1922" stroke="#1a1922"></path><path d="M663 66L572 0L617 97Z" fill="#4c4c8c" stroke="#4c4c8c"></path><path d="M472 0L420 108L491 128Z" fill="#7678ed" stroke="#7678ed"></path><path d="M491 128L420 108L510 198Z" fill="#1a1922" stroke="#1a1922"></path><path d="M469 300L605 300L573 230Z" fill="#7678ed" stroke="#7678ed"></path><path d="M573 230L719 228L617 97Z" fill="#5656a3" stroke="#5656a3"></path><path d="M469 300L573 230L510 198Z" fill="#4c4c8c" stroke="#4c4c8c"></path><path d="M572 0L472 0L491 128Z" fill="#2e2d4a" stroke="#2e2d4a"></path><path d="M605 300L719 228L573 230Z" fill="#6b6dd4" stroke="#6b6dd4"></path><path d="M364 212L469 300L510 198Z" fill="#4c4c8c" stroke="#4c4c8c"></path><path d="M833 94L700 0L663 66Z" fill="#4c4c8c" stroke="#4c4c8c"></path><path d="M663 66L700 0L572 0Z" fill="#1a1922" stroke="#1a1922"></path><path d="M605 300L696 300L719 228Z" fill="#424175" stroke="#424175"></path><path d="M331 206L364 212L420 108Z" fill="#4c4c8c" stroke="#4c4c8c"></path><path d="M420 108L364 212L510 198Z" fill="#5656a3" stroke="#5656a3"></path><path d="M696 300L764 217L719 228Z" fill="#4c4c8c" stroke="#4c4c8c"></path><path d="M719 228L764 217L663 66Z" fill="#38375f" stroke="#38375f"></path><path d="M472 0L375 0L420 108Z" fill="#1a1922" stroke="#1a1922"></path><path d="M364 212L381 300L469 300Z" fill="#0f0f0f" stroke="#0f0f0f"></path><path d="M322 69L331 206L420 108Z" fill="#2e2d4a" stroke="#2e2d4a"></path><path d="M364 212L331 206L381 300Z" fill="#424175" stroke="#424175"></path><path d="M375 0L322 69L420 108Z" fill="#38375f" stroke="#38375f"></path><path d="M764 217L833 94L663 66Z" fill="#242335" stroke="#242335"></path><path d="M696 300L817 300L764 217Z" fill="#0f0f0f" stroke="#0f0f0f"></path><path d="M900 192L900 120L833 94Z" fill="#5656a3" stroke="#5656a3"></path><path d="M833 94L831 0L700 0Z" fill="#6b6dd4" stroke="#6b6dd4"></path><path d="M375 0L279 0L322 69Z" fill="#424175" stroke="#424175"></path><path d="M205 187L278 300L331 206Z" fill="#0f0f0f" stroke="#0f0f0f"></path><path d="M205 187L331 206L322 69Z" fill="#6161bb" stroke="#6161bb"></path><path d="M331 206L278 300L381 300Z" fill="#5656a3" stroke="#5656a3"></path><path d="M900 192L833 94L764 217Z" fill="#4c4c8c" stroke="#4c4c8c"></path><path d="M833 94L900 0L831 0Z" fill="#7678ed" stroke="#7678ed"></path><path d="M817 300L900 192L764 217Z" fill="#4c4c8c" stroke="#4c4c8c"></path><path d="M179 98L205 187L322 69Z" fill="#38375f" stroke="#38375f"></path><path d="M900 120L900 0L833 94Z" fill="#6161bb" stroke="#6161bb"></path><path d="M817 300L900 300L900 192Z" fill="#6b6dd4" stroke="#6b6dd4"></path><path d="M279 0L179 98L322 69Z" fill="#424175" stroke="#424175"></path><path d="M205 0L179 98L279 0Z" fill="#7678ed" stroke="#7678ed"></path><path d="M115 300L207 300L205 187Z" fill="#4c4c8c" stroke="#4c4c8c"></path><path d="M205 187L207 300L278 300Z" fill="#6b6dd4" stroke="#6b6dd4"></path><path d="M179 98L120 180L205 187Z" fill="#242335" stroke="#242335"></path><path d="M82 85L120 180L179 98Z" fill="#2e2d4a" stroke="#2e2d4a"></path><path d="M120 180L115 300L205 187Z" fill="#7678ed" stroke="#7678ed"></path><path d="M205 0L110 0L179 98Z" fill="#424175" stroke="#424175"></path><path d="M120 180L0 234L115 300Z" fill="#1a1922" stroke="#1a1922"></path><path d="M110 0L82 85L179 98Z" fill="#6161bb" stroke="#6161bb"></path><path d="M0 0L0 69L82 85Z" fill="#0f0f0f" stroke="#0f0f0f"></path><path d="M82 85L0 234L120 180Z" fill="#242335" stroke="#242335"></path><path d="M0 69L0 234L82 85Z" fill="#2e2d4a" stroke="#2e2d4a"></path><path d="M110 0L0 0L82 85Z" fill="#2e2d4a" stroke="#2e2d4a"></path><path d="M0 234L0 300L115 300Z" fill="#38375f" stroke="#38375f"></path></g></svg>