<svg id="visual" viewBox="0 0 900 600" width="900" height="600" xmlns="http://www.w3.org/2000/svg" xmlns:xlink="http://www.w3.org/1999/xlink" version="1.1"><g stroke-width="1" stroke-linejoin="bevel"><path d="M506 306L478 361L568 376Z" fill="#beb7f5" stroke="#beb7f5"></path><path d="M568 376L629 334L506 306Z" fill="#7678ed" stroke="#7678ed"></path><path d="M478 361L535 490L568 376Z" fill="#beb7f5" stroke="#beb7f5"></path><path d="M568 376L702 408L629 334Z" fill="#7678ed" stroke="#7678ed"></path><path d="M326 363L411 439L478 361Z" fill="#eeecf9" stroke="#eeecf9"></path><path d="M478 361L411 439L535 490Z" fill="#cbc4f6" stroke="#cbc4f6"></path><path d="M569 192L473 212L506 306Z" fill="#cbc4f6" stroke="#cbc4f6"></path><path d="M506 306L367 281L478 361Z" fill="#e3dff8" stroke="#e3dff8"></path><path d="M629 334L569 192L506 306Z" fill="#eeecf9" stroke="#eeecf9"></path><path d="M473 212L367 281L506 306Z" fill="#8684ef" stroke="#8684ef"></path><path d="M601 524L702 408L568 376Z" fill="#8684ef" stroke="#8684ef"></path><path d="M629 334L713 223L569 192Z" fill="#fafafa" stroke="#fafafa"></path><path d="M513 600L601 524L535 490Z" fill="#8684ef" stroke="#8684ef"></path><path d="M535 490L601 524L568 376Z" fill="#eeecf9" stroke="#eeecf9"></path><path d="M502 115L398 209L473 212Z" fill="#fafafa" stroke="#fafafa"></path><path d="M473 212L398 209L367 281Z" fill="#d7d1f7" stroke="#d7d1f7"></path><path d="M367 281L326 363L478 361Z" fill="#8684ef" stroke="#8684ef"></path><path d="M310 329L326 363L367 281Z" fill="#d7d1f7" stroke="#d7d1f7"></path><path d="M265 502L435 531L411 439Z" fill="#a39df2" stroke="#a39df2"></path><path d="M411 439L435 531L535 490Z" fill="#cbc4f6" stroke="#cbc4f6"></path><path d="M702 408L735 323L629 334Z" fill="#b1aaf4" stroke="#b1aaf4"></path><path d="M271 173L310 329L367 281Z" fill="#9591f0" stroke="#9591f0"></path><path d="M713 223L594 139L569 192Z" fill="#e3dff8" stroke="#e3dff8"></path><path d="M569 192L502 115L473 212Z" fill="#a39df2" stroke="#a39df2"></path><path d="M735 323L713 223L629 334Z" fill="#8684ef" stroke="#8684ef"></path><path d="M601 524L725 464L702 408Z" fill="#beb7f5" stroke="#beb7f5"></path><path d="M702 408L774 427L735 323Z" fill="#cbc4f6" stroke="#cbc4f6"></path><path d="M594 139L502 115L569 192Z" fill="#b1aaf4" stroke="#b1aaf4"></path><path d="M435 531L513 600L535 490Z" fill="#eeecf9" stroke="#eeecf9"></path><path d="M601 524L675 600L725 464Z" fill="#eeecf9" stroke="#eeecf9"></path><path d="M725 464L774 427L702 408Z" fill="#a39df2" stroke="#a39df2"></path><path d="M735 323L809 293L713 223Z" fill="#cbc4f6" stroke="#cbc4f6"></path><path d="M513 600L608 600L601 524Z" fill="#beb7f5" stroke="#beb7f5"></path><path d="M725 464L830 494L774 427Z" fill="#8684ef" stroke="#8684ef"></path><path d="M285 600L423 600L435 531Z" fill="#7678ed" stroke="#7678ed"></path><path d="M435 531L423 600L513 600Z" fill="#7678ed" stroke="#7678ed"></path><path d="M265 502L411 439L326 363Z" fill="#8684ef" stroke="#8684ef"></path><path d="M774 427L809 293L735 323Z" fill="#b1aaf4" stroke="#b1aaf4"></path><path d="M608 600L675 600L601 524Z" fill="#eeecf9" stroke="#eeecf9"></path><path d="M209 424L265 502L326 363Z" fill="#9591f0" stroke="#9591f0"></path><path d="M502 115L392 79L398 209Z" fill="#fafafa" stroke="#fafafa"></path><path d="M398 209L271 173L367 281Z" fill="#a39df2" stroke="#a39df2"></path><path d="M501 0L392 79L502 115Z" fill="#a39df2" stroke="#a39df2"></path><path d="M392 79L306 132L398 209Z" fill="#fafafa" stroke="#fafafa"></path><path d="M310 329L209 424L326 363Z" fill="#fafafa" stroke="#fafafa"></path><path d="M306 132L271 173L398 209Z" fill="#8684ef" stroke="#8684ef"></path><path d="M168 328L209 424L310 329Z" fill="#d7d1f7" stroke="#d7d1f7"></path><path d="M816 600L830 494L725 464Z" fill="#e3dff8" stroke="#e3dff8"></path><path d="M900 415L900 325L809 293Z" fill="#8684ef" stroke="#8684ef"></path><path d="M265 502L285 600L435 531Z" fill="#8684ef" stroke="#8684ef"></path><path d="M202 528L285 600L265 502Z" fill="#8684ef" stroke="#8684ef"></path><path d="M835 177L728 64L713 223Z" fill="#e3dff8" stroke="#e3dff8"></path><path d="M713 223L728 64L594 139Z" fill="#beb7f5" stroke="#beb7f5"></path><path d="M615 0L501 0L502 115Z" fill="#9591f0" stroke="#9591f0"></path><path d="M615 0L502 115L594 139Z" fill="#beb7f5" stroke="#beb7f5"></path><path d="M392 79L317 0L306 132Z" fill="#8684ef" stroke="#8684ef"></path><path d="M809 293L835 177L713 223Z" fill="#e3dff8" stroke="#e3dff8"></path><path d="M900 229L835 177L809 293Z" fill="#9591f0" stroke="#9591f0"></path><path d="M271 173L168 328L310 329Z" fill="#fafafa" stroke="#fafafa"></path><path d="M728 64L615 0L594 139Z" fill="#a39df2" stroke="#a39df2"></path><path d="M125 464L202 528L209 424Z" fill="#eeecf9" stroke="#eeecf9"></path><path d="M209 424L202 528L265 502Z" fill="#9591f0" stroke="#9591f0"></path><path d="M900 415L809 293L774 427Z" fill="#a39df2" stroke="#a39df2"></path><path d="M501 0L385 0L392 79Z" fill="#d7d1f7" stroke="#d7d1f7"></path><path d="M174 124L173 194L271 173Z" fill="#e3dff8" stroke="#e3dff8"></path><path d="M271 173L173 194L168 328Z" fill="#d7d1f7" stroke="#d7d1f7"></path><path d="M830 494L900 415L774 427Z" fill="#d7d1f7" stroke="#d7d1f7"></path><path d="M675 600L816 600L725 464Z" fill="#cbc4f6" stroke="#cbc4f6"></path><path d="M830 494L900 521L900 415Z" fill="#cbc4f6" stroke="#cbc4f6"></path><path d="M174 124L271 173L306 132Z" fill="#eeecf9" stroke="#eeecf9"></path><path d="M814 0L729 0L728 64Z" fill="#cbc4f6" stroke="#cbc4f6"></path><path d="M900 325L900 229L809 293Z" fill="#8684ef" stroke="#8684ef"></path><path d="M824 60L728 64L835 177Z" fill="#b1aaf4" stroke="#b1aaf4"></path><path d="M728 64L729 0L615 0Z" fill="#d7d1f7" stroke="#d7d1f7"></path><path d="M168 328L120 360L209 424Z" fill="#d7d1f7" stroke="#d7d1f7"></path><path d="M104 337L120 360L168 328Z" fill="#cbc4f6" stroke="#cbc4f6"></path><path d="M138 600L203 600L202 528Z" fill="#b1aaf4" stroke="#b1aaf4"></path><path d="M202 528L203 600L285 600Z" fill="#e3dff8" stroke="#e3dff8"></path><path d="M385 0L317 0L392 79Z" fill="#cbc4f6" stroke="#cbc4f6"></path><path d="M816 600L900 521L830 494Z" fill="#beb7f5" stroke="#beb7f5"></path><path d="M900 96L824 60L835 177Z" fill="#b1aaf4" stroke="#b1aaf4"></path><path d="M120 360L125 464L209 424Z" fill="#8684ef" stroke="#8684ef"></path><path d="M179 0L174 124L306 132Z" fill="#fafafa" stroke="#fafafa"></path><path d="M69 207L104 337L168 328Z" fill="#a39df2" stroke="#a39df2"></path><path d="M69 207L168 328L173 194Z" fill="#fafafa" stroke="#fafafa"></path><path d="M120 360L0 388L125 464Z" fill="#eeecf9" stroke="#eeecf9"></path><path d="M816 600L900 600L900 521Z" fill="#fafafa" stroke="#fafafa"></path><path d="M900 229L900 96L835 177Z" fill="#e3dff8" stroke="#e3dff8"></path><path d="M824 60L814 0L728 64Z" fill="#beb7f5" stroke="#beb7f5"></path><path d="M900 0L814 0L824 60Z" fill="#cbc4f6" stroke="#cbc4f6"></path><path d="M0 502L138 600L125 464Z" fill="#cbc4f6" stroke="#cbc4f6"></path><path d="M125 464L138 600L202 528Z" fill="#e3dff8" stroke="#e3dff8"></path><path d="M174 124L69 207L173 194Z" fill="#beb7f5" stroke="#beb7f5"></path><path d="M104 337L0 388L120 360Z" fill="#9591f0" stroke="#9591f0"></path><path d="M89 69L69 207L174 124Z" fill="#7678ed" stroke="#7678ed"></path><path d="M317 0L179 0L306 132Z" fill="#a39df2" stroke="#a39df2"></path><path d="M900 96L900 0L824 60Z" fill="#d7d1f7" stroke="#d7d1f7"></path><path d="M179 0L89 69L174 124Z" fill="#8684ef" stroke="#8684ef"></path><path d="M0 302L0 388L104 337Z" fill="#e3dff8" stroke="#e3dff8"></path><path d="M0 302L104 337L69 207Z" fill="#d7d1f7" stroke="#d7d1f7"></path><path d="M0 186L0 302L69 207Z" fill="#cbc4f6" stroke="#cbc4f6"></path><path d="M0 388L0 502L125 464Z" fill="#d7d1f7" stroke="#d7d1f7"></path><path d="M0 111L0 186L69 207Z" fill="#b1aaf4" stroke="#b1aaf4"></path><path d="M0 0L0 111L89 69Z" fill="#eeecf9" stroke="#eeecf9"></path><path d="M89 69L0 111L69 207Z" fill="#8684ef" stroke="#8684ef"></path><path d="M179 0L63 0L89 69Z" fill="#7678ed" stroke="#7678ed"></path><path d="M0 502L0 600L138 600Z" fill="#d7d1f7" stroke="#d7d1f7"></path><path d="M63 0L0 0L89 69Z" fill="#beb7f5" stroke="#beb7f5"></path></g></svg>